<svg xmlns="http://www.w3.org/2000/svg" width="140" height="140" viewBox="432 0 140 140"><path fill="#FFF" d="M432 0h140v140H432V0z"/><path fill="#002276" d="M447.4 34.437v11.205h10.212v61.96h13.215V34.437H447.4zm85.303 0v11.205h10.813v61.96h13.216V34.437h-24.029zm-31.424-1.561c-11.04.278-19.98 12.343-13.028 25.29l.007.009 4.747 6.973c-8.105 4.905-13.985 11.223-13.608 22.023.973 16.152 11.579 21.147 23.266 21.749 6.057-.386 12.058-.9 16.408-5.473l2.821 4.152h13.218a6345.52 6345.52 0 0 1-8.237-12.076c5.56-6.854 5.414-16.505 5.228-25.489h-10.81c-.196 5.027.54 14.04-1.512 15.075-3.854-5.661-7.687-11.271-11.382-16.675 5.373-4.67 10.1-9.776 9.891-18.175.752-11.997-5.736-16.664-15.367-17.335a14.512 14.512 0 0 0-1.642-.048zm1.384 11.118c1.914.068 5.313-.198 5.41 5.605-.384 4.477-3.104 6.917-5.882 9.788-.902-1.312-1.812-2.638-2.686-3.904-.725-1.048-1.536-2.033-2.152-3.095-.239-1.04-.19-1.883-.203-2.913-.04-1.049 1.01-4.99 5.513-5.481zm-3.13 30.755l12.639 18.564c-1.332 2.392-4.682 3.787-9.509 4.035-4.145-.105-10.68-1.481-11.41-9.516-.06-5.637 4.687-10.373 8.28-13.083z"/></svg>