<svg enable-background="new 0 0 140 140" viewBox="0 0 140 140" width="140" height="140" xmlns="http://www.w3.org/2000/svg"><path clip-rule="evenodd" d="m100.5 60.7c-1 0-2 .2-2.9.5s-1.7.8-2.4 1.4-1.2 1.3-1.6 2.1-.5 1.7-.6 2.5c0 .9.2 1.7.6 2.5.2.4.4.8.7 1.1-1.1 1.1-1.7 2.6-1.5 4.1.1 1.1.7 2.1 1.6 3-2.3 1.8-1.8 5.4.5 7 2.7 1.9 7.6 2.1 10.6.7 5.2-2.1 5.2-9.9-.5-10.8-1.9-.4-5.6.5-7.1-.4-.6-.3-.6-1-.3-1.4.7.5 2 .6 3.1.6 1 0 1.9-.1 2.8-.4 2.7-.9 4.3-3.2 4.3-6 0-1.7-.4-2.7-1.2-3.8.5-.8 1.1-1.2 1.9-1.5l-2.1-3.5c-1.6.3-2.9 1.3-3.7 2.5-.7-.2-1.3-.3-2.1-.3h-.1zm.1 3.6c1.6 0 2.8 1.3 2.8 2.8 0 1.6-1.3 2.8-2.8 2.8-1.6 0-2.8-1.3-2.8-2.8s1.3-2.8 2.8-2.8zm-57.7 1c-2.4 0-4.3 1.9-4.3 4.3s1.9 4.3 4.3 4.3 4.3-1.9 4.3-4.3c-.1-2.4-2-4.3-4.3-4.3zm-4.3 12.6c-8-3.5-6.1-17.2 3.3-17.2 2 0 3.5.6 5 2v-8.7h5v24h-4.8v-1.8c-.7.8-1.4 1.4-2.2 1.8-1.8.8-4.4.7-6.3-.1zm50.2-18.4c1.7 0 3-1.3 3-3s-1.3-3-3-3-3 1.3-3 3 1.3 3 3 3zm21.2 18.5v-16.7h4.7v1.7c.6-.8 1.2-1.4 1.9-1.8s1.6-.6 2.7-.6c.9 0 1.7.1 2.5.5.8.3 1.4.7 2 1.3.3.3.6.6.8 1 .2.3.4.7.5 1.1s.2.8.3 1.3.1 1.1.1 1.8v10.4h-5v-9.1c0-1.2-.2-2.1-.6-2.6-.4-.6-1.1-.8-2-.8-1.9 0-2.8 1.1-2.8 3.3v9.2zm-18.7-16.7v16.7h-5v-16.7zm-25.8 6.5c-.2-.9-.6-1.6-1.3-2.1s-1.5-.8-2.5-.8-1.8.3-2.5.8-1.1 1.2-1.3 2.2h7.6zm4.3 5.2c-.8 1.7-1.8 3-3.2 4s-3 1.5-4.8 1.5c-1.2 0-2.4-.2-3.4-.7-1.1-.5-2-1.1-2.8-1.9s-1.4-1.7-1.9-2.8-.7-2.2-.7-3.5c0-1.2.2-2.4.7-3.5s1.1-2 1.9-2.8 1.7-1.4 2.8-1.9 2.2-.7 3.4-.7 2.4.2 3.5.7 2 1.1 2.8 1.9 1.4 1.8 1.9 2.9c.6 1.6.8 3.3.5 5h-12.7c.1.9.5 1.7 1.2 2.3s1.5.9 2.5.9c.6 0 1.2-.1 1.6-.3s.9-.5 1.5-1h5.2zm-44.7-14.7c-2.3 0-4.1 1.8-4.1 4.1s1.8 4.1 4.1 4.1c1.5 0 2.8-.8 3.5-2 .3-.6.5-1.3.5-2 .1-2.4-1.8-4.2-4-4.2zm-16.2 0c-2.3 0-4.1 1.8-4.1 4.1s1.8 4.1 4.1 4.1c1.5 0 2.8-.8 3.5-2 .3-.6.5-1.3.5-2 .1-2.4-1.7-4.2-4-4.2zm0-4.9c-4.9 0-8.9 4-8.9 8.9 0 4.7 3.7 8.6 8.3 8.9l-3.9 6.8h5.8l6.4-11.1c.1-.2.3-.5.4-.7 1.3 2.9 4.1 4.9 7.5 5.1l-3.9 6.7h5.8l6.4-11.1c.8-1.3 1.2-2.8 1.2-4.5 0-4.9-4-8.9-8.9-8.9-3.6 0-6.7 2.1-8.1 5.2-1.4-3.1-4.5-5.3-8.1-5.3zm124.4 7.3c1.8 0 3.2.5 4.3 1.4s1.7 2.2 1.9 3.8h-4.8c0-1.8-3.1-1.6-3.1-.2 0 .4.2.7.6 1s1.1.6 2 .8 1.6.5 2.1.6c2.2.7 3.7 2.1 3.7 4.6 0 .8-.2 1.6-.5 2.3-.4.7-.8 1.3-1.5 1.8-.6.5-1.4.9-2.2 1.2s-1.8.4-2.7.4c-3.4 0-6.2-2-6.5-5.5h4.8c.3 2.1 3.8 2 3.8.2 0-2.5-5.6-1.9-7.6-4.6-1-1.3-1.1-3.1-.4-4.5 1-2.2 3.7-3.3 6.1-3.3zm-33 17.8h1.8c1.1 0 2.4.3 2.4 1.7 0 .4-.2.9-.4 1.2-.6.8-1.7 1-2.6 1.1-1.1.1-2.5-.2-3.3-1.1-.5-.6-.5-1.2-.3-1.8.6-.9 1.5-1.1 2.4-1.1zm-22.2-17.8c1.8 0 3.2.5 4.3 1.4s1.7 2.2 1.9 3.8h-4.8c0-1.8-3.1-1.6-3.1-.2 0 .4.2.7.6 1s1.1.6 2 .8 1.6.5 2.1.6c2.2.7 3.7 2.1 3.7 4.6 0 .8-.2 1.6-.5 2.3-.4.7-.8 1.3-1.5 1.8-.6.5-1.4.9-2.2 1.2s-1.8.4-2.7.4c-3.4 0-6.2-2-6.5-5.5h4.8c.3 2.1 3.8 2 3.8.2 0-2.5-5.6-1.9-7.6-4.6-1-1.3-1.1-3.1-.4-4.5 1-2.2 3.6-3.3 6.1-3.3z" fill="#676767" fill-rule="evenodd"/></svg>