<svg enable-background="new 0 0 140 140" viewBox="0 0 140 140" width="140" height="140" xmlns="http://www.w3.org/2000/svg"><path d="m0 123.5h5.2c1.2 0 2.4.1 3.4.3s1.9.6 2.7 1.1c.7.5 1.3 1.3 1.7 2.2s.6 2 .6 3.4c0 1.3-.2 2.4-.6 3.4-.4.9-1 1.6-1.7 2.2s-1.6 1-2.7 1.2c-1 .2-2.1.4-3.4.4h-5.2zm3.8 11.4h1.5c1.4 0 2.5-.4 3.3-1.1s1.1-1.8 1.1-3.2-.4-2.5-1.2-3.2-1.9-1.1-3.3-1.1h-1.4z"/><path d="m15.2 130.6c0-1.1.2-2.2.5-3.1s.8-1.7 1.3-2.3c.6-.6 1.3-1.1 2.2-1.5.9-.3 1.9-.5 3.1-.5s2.2.2 3.1.5 1.6.8 2.2 1.5c.6.6 1.1 1.4 1.4 2.3s.5 1.9.5 3.1c0 1.1-.1 2.1-.5 3-.3.9-.8 1.7-1.4 2.3s-1.3 1.1-2.2 1.5c-.9.3-1.9.5-3.1.5s-2.2-.2-3.1-.5-1.6-.8-2.2-1.5c-.6-.6-1.1-1.4-1.4-2.3s-.4-1.9-.4-3m3.9 0c0 .6.1 1.1.2 1.7s.3 1 .6 1.5c.3.4.6.8 1 1 .4.3.9.4 1.5.4s1-.1 1.5-.4c.4-.2.7-.6 1-1s.4-.9.6-1.5c.1-.5.2-1.1.2-1.7s-.1-1.2-.2-1.7-.3-1-.6-1.4-.6-.7-1-1c-.4-.2-.9-.4-1.5-.4s-1.1.1-1.5.4c-.4.2-.7.6-1 1s-.5.9-.6 1.4-.2 1.1-.2 1.7"/><path d="m31.3 123.5h6l3 9.4 3.2-9.4h5.7v14.2h-3.7l.1-10.9h-.1l-3.6 10.9h-3.5l-3.4-10.9h-.1l.1 10.9h-3.7z"/><path d="m55.9 123.5h4.6l5.5 14.2h-4.1l-1.1-3h-5.3l-1.1 3h-3.8zm2.3 2.9-1.9 5.5h3.6z"/><path d="m67.6 123.5h3.8v14.2h-3.8z"/><path d="m74.1 123.5h4.9l4.7 9.6h.1l-.1-9.6h3.5v14.2h-4.7l-5-9.7.1 9.7h-3.5z"/><path d="m89.9 134.4h3.4v3.3h-3.4z"/><path d="m106.2 125.8c-.9-.5-1.9-.8-2.9-.8-.8 0-1.6.1-2.2.4-.7.3-1.2.7-1.7 1.2s-.9 1.1-1.1 1.8-.4 1.4-.4 2.2.1 1.6.4 2.3.7 1.3 1.1 1.7c.5.5 1.1.9 1.7 1.1.6.3 1.3.4 2.1.4.3 0 .5 0 .8-.1.3 0 .6-.1.8-.1.3-.1.5-.1.8-.2.2-.1.5-.2.6-.3l.1 2c-.5.2-1.1.4-1.7.4-.6.1-1.1.1-1.5.1-1.1 0-2.1-.2-3.1-.5-.9-.3-1.7-.8-2.4-1.5-.6-.6-1.2-1.4-1.5-2.3-.4-.9-.5-1.9-.5-3.1 0-1.1.2-2.1.6-3s.9-1.7 1.6-2.3 1.5-1.1 2.4-1.5c.9-.3 1.9-.5 3-.5.6 0 1.1 0 1.6.1s1 .3 1.6.5z"/><path d="m108 130.6c0-1.1.2-2 .5-2.9s.8-1.7 1.3-2.3c.6-.6 1.3-1.2 2.1-1.5.8-.4 1.8-.6 2.9-.6s2 .2 2.9.6c.8.4 1.6.9 2.2 1.5.6.7 1 1.4 1.3 2.3s.5 1.9.5 2.9c0 1.1-.2 2.1-.5 3s-.8 1.7-1.3 2.3c-.6.7-1.3 1.2-2.1 1.5-.8.4-1.8.5-2.9.5s-2.1-.2-2.9-.5c-.8-.4-1.6-.9-2.1-1.5-.6-.6-1-1.4-1.3-2.3-.4-.9-.6-1.9-.6-3m2.2 0c0 .7.1 1.4.3 2.1s.5 1.3.8 1.8c.4.5.9.9 1.5 1.2s1.3.5 2.1.5 1.5-.2 2.1-.5 1.1-.7 1.5-1.2.7-1.1.8-1.8c.2-.7.3-1.3.3-2.1 0-.7-.1-1.4-.3-2.1s-.5-1.3-.9-1.8-.9-.9-1.5-1.2-1.3-.5-2-.5c-.8 0-1.5.2-2.1.5s-1.1.7-1.5 1.2-.7 1.1-.9 1.8c-.1.7-.2 1.4-.2 2.1"/><path d="m124.5 123.5h3.3l4.5 11.8 4.4-11.8h3.3v14.2h-2v-12.3h-.1l-4.7 12.3h-2l-4.6-12.3h-.1v12.3h-2z"/><path d="m54.4 80.8.1-51.1h18c13.9 0 22.2 8.9 21.9 26-.3 16.4-8.9 25.1-22 25.1zm16.9-12c4.1-.3 6-2.7 6.5-10.7.1-1.4.1-2.9-.1-4.6-.2-2.3-.3-3.9-.6-5.1-1.1-5.1-2.7-6.7-5.9-6.8-.4 0-.7 0-1.1.1v27.1z" fill="#ea2d2f"/><path d="m70.4 92.9c-20.7 0-37.5-16.8-37.5-37.5s16.8-37.5 37.5-37.5 37.5 16.8 37.5 37.5c0 10-3.9 19.1-10.3 25.8h16.6c4.5-7.6 7.1-16.4 7.1-25.8 0-28-22.8-50.8-50.8-50.8s-50.8 22.8-50.8 50.8 22.8 50.8 50.8 50.8c10 0 19.3-2.9 27.1-7.9v-17c-6.9 7.2-16.5 11.6-27.2 11.6" fill="#ea2d2f"/><path d="m97.5 81.3c.1 0 .1 0 0 0z" fill="#fff"/><path d="m116.9 93.2c0 3.6-2.9 6.4-6.4 6.4-3.6 0-6.4-2.9-6.4-6.4 0-3.6 2.9-6.4 6.4-6.4 3.6 0 6.4 2.9 6.4 6.4" fill="#ea2d2f"/><path d="m27.4 102.5c0 1.4-1.1 2.5-2.6 2.5-1.4 0-2.6-1.1-2.6-2.5s1.2-2.5 2.6-2.5c1.4-.1 2.6 1 2.6 2.5m-4.5 0c0 1.1.8 2 2 2 1.1 0 1.9-.9 1.9-2s-.8-2-1.9-2c-1.2-.1-2 .9-2 2m1.5 1.3h-.6v-2.5c.2 0 .6-.1 1-.1.5 0 .7.1.9.2s.3.3.3.5c0 .3-.2.5-.5.6.2.1.4.3.4.6.1.4.1.5.2.6h-.6c-.1-.1-.1-.3-.2-.6 0-.3-.2-.4-.5-.4h-.3v1.1zm0-1.5h.3c.3 0 .6-.1.6-.4 0-.2-.2-.4-.5-.4-.2 0-.3 0-.3 0v.8z"/></svg>