<svg enable-background="new 0 0 140 140" width="140" height="140" viewBox="0 0 140 140" xmlns="http://www.w3.org/2000/svg"><path d="m0 0h140v140h-140z" fill="#fff"/><path d="m27.8 57c-3.4-2.1-7.8-1.6-11.7.9-3.9-2.5-8.3-3-11.7-.9-5.3 3.3-5.9 11.8-1.4 19 3.3 5.3 8.5 8.4 13.1 8.4 4.6.1 9.8-3.1 13.1-8.4 4.6-7.2 3.9-15.7-1.4-19zm-22.4 17.5c-.9-1.5-1.6-3.1-2.1-4.8-.4-1.5-.6-3-.5-4.5.2-2.7 1.3-4.7 3.1-5.8s4.1-1.2 6.6-.2c.4.1.7.3 1.1.5-1.4 1.3-2.6 2.7-3.6 4.3-2.7 4.4-3.6 9.2-2.6 13.1-.7-.8-1.4-1.7-2-2.6zm23.5-4.8c-.4 1.7-1.1 3.3-2.1 4.8-.6 1-1.3 1.8-2 2.7.9-3.5.3-7.7-1.8-11.7-.1-.1-.2-.2-.3-.3-.1 0-.3 0-.4.1l-6.5 4.1c-.1.1-.2.2-.2.3s0 .3.1.4l1 1.5c.1.1.2.2.3.2s.3 0 .4-.1l4.2-2.6c.1.4.3.8.4 1.2.4 1.5.6 3 .5 4.5-.2 2.7-1.3 4.7-3.1 5.8-.9.6-2 .9-3 .9 0 0 0 0-.1 0h-.1c-1.1 0-2.1-.3-3-.9-1.8-1.1-2.9-3.2-3.1-5.8-.1-1.5.1-3 .5-4.5.9-3.4 2.8-6.4 5.4-8.7 1.1-1 2.4-1.8 3.8-2.4 2.5-1 4.8-.9 6.6.2s2.8 3.2 3.1 5.8c-.1 1.5-.2 3.1-.6 4.5zm33.7-3.2c-3.4 0-6.2 2.7-6.2 6.1s2.8 6 6.2 6c3.5 0 6.2-2.6 6.2-6s-2.8-6.1-6.2-6.1zm0 8.9c-1.6 0-2.8-1.3-2.8-2.9s1.2-2.9 2.8-2.9 2.8 1.3 2.8 2.9-1.2 3-2.8 2.9zm13.9-13.5h-6.3c-.1 0-.3.1-.4.1-.1.1-.2.2-.1.4v15.4c0 .1 0 .3.1.4s.2.2.4.2h6.3c5 0 8.6-3.4 8.6-8.2 0-5.1-3.5-8.3-8.6-8.3zm.2 13.2h-3.5v-10h3.5c2.8 0 4.7 2.1 4.7 5 0 2.8-1.9 5-4.7 5zm20.9-8.2h-2.4c-.3 0-.5.2-.5.5v.7c-.5-.9-1.8-1.6-3.3-1.6-3 0-5.7 2.3-5.7 6s2.7 6.1 5.7 6.1c1.5 0 2.8-.7 3.3-1.5v.7c0 .3.2.5.5.5h2.4c.1 0 .3 0 .4-.1s.1-.2.1-.4v-10.4c0-.1 0-.3-.1-.4s-.2-.1-.4-.1zm-5.5 8.6c-1.6 0-2.8-1.2-2.8-2.9s1.2-2.9 2.8-2.9 2.8 1.2 2.8 2.9-1.2 2.9-2.8 2.9zm18.8-13.6h-2.4c-.1 0-.3 0-.4.1s-.2.2-.2.4v5.6c-.5-.8-1.8-1.5-3.3-1.5-2.9 0-5.7 2.3-5.7 6s2.7 6.1 5.7 6.1c1.5 0 2.7-.7 3.3-1.5v.7c0 .3.2.5.5.5h2.4c.1 0 .3 0 .4-.1s.1-.2.1-.4v-15.4c0-.1 0-.3-.1-.4 0-.1-.1-.1-.3-.1zm-5.5 13.6c-1.6 0-2.7-1.2-2.7-2.9s1.2-2.9 2.7-2.9 2.7 1.2 2.7 2.9-1.1 2.9-2.7 2.9zm18.8-13.6h-2.4c-.1 0-.3 0-.4.1s-.2.2-.2.4v5.6c-.5-.8-1.8-1.5-3.3-1.5-2.9 0-5.7 2.3-5.7 6s2.7 6.1 5.7 6.1c1.5 0 2.7-.7 3.3-1.5v.7c0 .3.2.5.5.5h2.4c.1 0 .3 0 .4-.1s.1-.2.1-.4v-15.4c0-.1 0-.3-.1-.4 0-.1-.1-.1-.3-.1zm-5.5 13.6c-1.6 0-2.7-1.2-2.7-2.9s1.2-2.9 2.7-2.9 2.7 1.2 2.7 2.9c.1 1.7-1.1 2.9-2.7 2.9zm18.5-7.8-3.5 12.1c-.7 2.2-2.2 3.5-4.6 3.5-1.1 0-2.1-.2-2.8-.7-.4-.3-.8-.5-.8-.9 0-.2.1-.4.2-.6l.7-1.1c.2-.3.3-.4.6-.4.2 0 .3.1.5.2.4.3.9.5 1.5.5.7 0 1.3-.2 1.6-1.1l.3-1h-1.4c-.4 0-.5-.2-.6-.5l-3.2-10.1c-.1-.4 0-.8.6-.8h2.5c.3 0 .5.1.7.5l2.3 8.2 2.2-8.2c.1-.3.3-.5.6-.5h2.4c.2.1.4.4.2.9zm-81.7 3.6v6.5c0 .1-.1.3-.2.4s-.2.2-.4.2h-2c-.1 0-.3-.1-.4-.2s-.2-.2-.2-.4v-1.7c-1.2 1.6-3.4 2.6-5.8 2.6-4.6 0-8.2-3.5-8.2-8.4 0-5.1 3.9-8.6 8.8-8.6 3.6 0 6.5 1.6 7.8 4.7 0 .1.1.2.1.3s-.1.3-.4.4l-2.3.9c-.1.1-.3.1-.4 0s-.2-.2-.3-.3c-.8-1.6-2.3-2.6-4.5-2.6-2.9 0-5 2.3-5 5.2s1.8 5.2 5.1 5.2c1.7 0 3.1-.8 3.8-1.7h-2.1c-.1 0-.3-.1-.4-.2s-.2-.2-.2-.4v-1.8c0-.1.1-.3.2-.4s.2-.2.4-.2h6c.1 0 .3 0 .4.1s.2.2.2.4zm81.8-6.8v-.2h1v.2h-.3v1h-.2v-1zm1.7-.2.3.6.3-.6h.3v1.2h-.2v-.9l-.3.7h-.1l-.3-.7v.9h-.2v-1.2s0 0 0 0z" fill="#111"/></svg>
