<svg enable-background="new 0 0 140 140" viewBox="0 0 140 140" width="140" height="140" xmlns="http://www.w3.org/2000/svg"><path d="m0 0h140v140h-140z" fill="#fff"/><g fill="#5340ff"><path d="m12.1 60.2 8.4 4.9c1.4.8 2.2 2.2 2.2 3.8v16.5l10.1-5.7v-16.3c0-1.6-.8-3-2.2-3.8l-8.6-5z"/><path d="m20.7 79.8-8.4-4.9c-1.4-.8-2.2-2.2-2.2-3.8v-16.5l-10.1 5.6v16.4c0 1.6.8 3 2.2 3.8l8.6 5z"/><path d="m82.3 72.9c0 5.6-4 9.6-9.4 9.6-5.3 0-9.4-4.1-9.4-9.6 0-5.6 4-9.6 9.4-9.6 5.4-.1 9.4 3.9 9.4 9.6zm-4.8 0c0-3.4-2.2-5.2-4.5-5.2s-4.5 1.7-4.5 5.2c0 3.4 2.2 5.2 4.5 5.2 2.3-.1 4.5-1.8 4.5-5.2z"/><path d="m103.1 72.9c0 5.6-4 9.6-9.4 9.6s-9.4-4.1-9.4-9.6c0-5.6 4-9.6 9.4-9.6s9.4 3.9 9.4 9.6zm-4.8 0c0-3.4-2.2-5.2-4.5-5.2s-4.5 1.7-4.5 5.2c0 3.4 2.2 5.2 4.5 5.2s4.5-1.8 4.5-5.2z"/><path d="m45.4 82v-24.5h5.1v19.6h11.7v4.9z"/><path d="m116.1 71.4 7.4 10.5h-6l-4.8-6.9-2 2.1v4.9h-4.9v-24.5h4.9v13l6.3-6.8h6.4z"/><path d="m129.1 71.5 4.5-.7c1-.1 1.4-.7 1.4-1.3 0-1.3-1-2.4-3.1-2.4s-3.3.7-3.5 2.3l-4.4.1c.3-2.8 3-6.3 7.9-6.3 5.8 0 7.9 3.3 7.9 6.9v8.9c0 1 .1 2.3.2 2.9h-4.5c-.1-.5-.2-1.5-.2-2.2-.9 1.4-2.7 2.7-5.4 2.7-3.9 0-6.2-2.6-6.2-5.5 0-3.1 2.4-5 5.4-5.4zm5.9 3.1v-.8l-4.1.6c-1.3.2-2.3.9-2.3 2.3 0 1.1.8 2.1 2.4 2.1 2.1 0 4-1 4-4.2z"/></g></svg>