<svg enable-background="new 0 0 140 140" viewBox="0 0 140 140" xmlns="http://www.w3.org/2000/svg" width="140" height="140"><g clip-rule="evenodd" fill-rule="evenodd" transform="translate(624.202719 1.686567)"><path d="m-624.2 66.6c0-6.8 5.5-12.3 12.2-12.3 6.8 0 12.2 5.5 12.2 12.3s-5.5 12.3-12.2 12.3-12.2-5.5-12.2-12.3z" fill="#2ea048"/><path d="m-616 61.8c-2.6 0-4.8 2.1-4.8 4.8 0 2.6 2.1 4.8 4.8 4.8h.7v-1.8h-.7c-1.6 0-3-1.3-3-3s1.3-3 3-3h1.6v9.3c0 1 .8 1.8 1.8 1.8v-12.9z" fill="#fff"/><path d="m-607.9 71.4c2.6 0 4.8-2.1 4.8-4.8 0-2.6-2.1-4.8-4.8-4.8h-.7v1.8h.7c1.6 0 3 1.3 3 3s-1.3 3-3 3h-1.6v-9.3c0-1-.8-1.8-1.8-1.8v12.8h3.4z" fill="#fff"/><path d="m-595 63.2h1.4v-5.4h-1.4z" fill="#050505"/><path d="m-592.3 57.8h1.3v.9c.2-.5.9-1 1.7-1 1.4 0 2 1.1 2 2.2v3.4h-1.3v-3c0-.6-.1-1.4-1-1.4-.8 0-1.2.7-1.2 1.5v3h-1.3v-5.6z" fill="#050505"/><path d="m-576.5 63.2h-1.3v-.9c-.2.5-.9 1-1.7 1-1.4 0-2-1.1-2-2.2v-3.4h1.3v3c0 .6.1 1.4 1 1.4.8 0 1.2-.7 1.2-1.5v-3h1.3v5.6z" fill="#050505"/><path d="m-575.1 63.2h1.3v-5.4h-1.3z" fill="#050505"/><path d="m-582.3 57.8h-4.4v1.2h1.5v4.2h1.4v-4.2h1.5z" fill="#050505"/><path d="m-585.3 56.3c0-.4.4-.8.8-.8s.8.4.8.8-.4.8-.8.8-.8-.4-.8-.8" fill="#050505"/><path d="m-568.5 57.8h-4.3v1.2h1.5v4.2h1.3v-4.2h1.5z" fill="#050505"/><path d="m-571.5 56.3c0-.4.4-.8.8-.8s.8.4.8.8-.4.8-.8.8-.8-.4-.8-.8" fill="#050505"/><g fill="#040404"><path d="m-536.9 68.4c1.9 0 2.8 1.6 2.8 3.1 0 1.6-1 3.1-2.8 3.1s-2.8-1.6-2.8-3.1c0-1.4 1.1-3.1 2.8-3.1m.6-2.4c-1.3 0-2.3.6-3.2 1.5h-.1v-7h-2.9v16.4h2.8v-1.5c.7 1.1 2 1.8 3.3 1.8 3 0 5.3-2.4 5.3-5.6 0-3.3-2.2-5.6-5.2-5.6"/><path d="m-559.7 68.5c.8 0 1.7.4 2.1.9l1.9-1.9c-.9-1-2.3-1.5-3.9-1.5-3.3 0-5.6 2.3-5.6 5.6s2.3 5.6 5.7 5.6c1.6 0 3.1-.5 3.9-1.4l-1.8-2c-.4.5-1.3.9-2.1.9-1.8 0-2.7-1.6-2.7-3.1-.1-1.6.8-3.1 2.5-3.1"/><path d="m-493.2 66.3h-3.8l-3.7 4.4h-.1v-10.2h-2.9v16.4h2.9v-5.3h.1l3.9 5.3h3.8l-4.5-5.8z"/><path d="m-543.6 66.3h-3.7l-3.8 4.4v-10.2h-2.9v16.4h2.9v-5.3l3.9 5.3h3.9l-4.6-5.8z"/><path d="m-596.5 71.5c0 3.3 2.1 5.6 5.1 5.6 1.4 0 2.6-.7 3.4-1.6v6.5h2.9v-15.7h-2.8v1.3h-.1c-.4-.5-1.5-1.6-3.3-1.6-2.9 0-5.2 2.3-5.2 5.5m8.6.1c0 1.5-1 3.1-2.8 3.1s-2.8-1.6-2.8-3.1.9-3.1 2.8-3.1c1.8-.1 2.8 1.6 2.8 3.1"/><path d="m-575.6 72.1c0 1.2-.8 2.6-2.3 2.6-1.2 0-1.8-.8-1.8-2.5v-5.8h-2.9v6.6c0 2.2 1.1 4.3 4 4.3 1.4 0 2.5-1.1 3.1-1.9v1.6h2.8v-10.7h-2.9z"/><path d="m-570.3 76.9h2.9v-10.6h-2.9z"/><path d="m-524 74.7c-1.9 0-2.8-1.6-2.8-3.1s.9-3.1 2.8-3.1 2.8 1.6 2.8 3.1c-.1 1.4-.9 3.1-2.8 3.1m0-8.7c-3.3 0-5.7 2.3-5.7 5.5 0 3.3 2.5 5.7 5.7 5.7 3.3 0 5.7-2.4 5.7-5.7 0-3.2-2.4-5.5-5.7-5.5"/><path d="m-511.3 74.7c-1.9 0-2.8-1.6-2.8-3.1s.9-3.1 2.8-3.1 2.8 1.6 2.8 3.1c0 1.4-.9 3.1-2.8 3.1m0-8.7c-3.3 0-5.7 2.3-5.7 5.5 0 3.3 2.5 5.7 5.7 5.7s5.7-2.4 5.7-5.7c0-3.2-2.4-5.5-5.7-5.5"/><path d="m-488.2 68.2c.9 0 1.9.5 2.3 1.1l1.7-1.7c-.8-1-2.3-1.6-4-1.6-2.1 0-4.3 1.1-4.3 3.4 0 2 1.6 2.7 3.1 3 1.6.4 2.2.7 2.2 1.3 0 1-1.1 1.1-1.5 1.1-.9 0-2.1-.5-2.6-1.3l-1.8 1.8c1 1.1 2.6 1.7 4.3 1.7 2.8 0 4.5-1.4 4.5-3.6 0-2.1-2.1-2.9-3.5-3.2-1.5-.4-2-.6-2-1.2s1.1-.8 1.6-.8"/></g></g></svg>