<svg enable-background="new 0 0 140 140" viewBox="0 0 140 140" width="140" height="140" xmlns="http://www.w3.org/2000/svg"><g fill="#b94f26"><path d="m103.1 48.8c-4.5 0-8.1 3.6-8.1 8.1s3.6 8.1 8.1 8.1 8.1-3.6 8.1-8.1-3.6-8.1-8.1-8.1zm3.7 13.4c.9-1.1 1.5-2.6 1.5-4.2 0-3.3-2.4-6-5.5-6.6.3-.4.6-.8 1-1.1 3.2.5 5.6 3.3 5.6 6.6 0 2.2-1 4.1-2.6 5.3z"/><path d="m111.6 47.9c-3.2-3.3-7.5-4.4-13-3.4 0 0-6.6 1.6-12.4 1.7-2.5 0-4.6-.7-6.4-1.1 1 1.5 2.5 2.6 4.1 3.2s3.7 1.5 2.8 3c-1.1 1.7-2.8.3-3.2-.1-1.6-1.2-2.3-2.1-5.1-3.7-3.1-1.8-7.4-1.9-11.8-1.4 0 0 3.6.8 5.2 2.4 0 0-6.9-1.4-11.4.8 6.5.3 13.7 1.3 14.9 1.8s.6 1-.6 1.2c-2.9.6-8.3.8-11.6-.1-4.8-1.4-8.8-5.4-15.7-4.3 6.1 1.3 9.3 6.9 15.9 8.3 6.6 1.3 11-1.3 12.5-1.6 1.5-.4 2.8.1 3.2 1.2.3 1-1 2.3-2.8 2.6-1.4.2-1.8.3-4.2.5-5.1.5-8.7-.1-11.9-1-6.1-1.7-10.3-5.8-12.4-6.9-2-1.1-4.3-1.6-6-1.8 0 0 3.3 1.7 4.6 3.9-3-1.1-7.4-1.8-13.1-.6-3.1.6-8.9 2-16.1 4.8 3.6 1.1 8.2.3 10.2.1 10.7-.9 14.3 1.5 17.7 2.7 10.5 3.7 14.2.4 14.9 1.5.5.8-2.9 2.2-3.8 2.4-4.7.9-7 0-11.5-1 2.2 2.2 6.3 3.7 11.1 3.6 4.8-.2 9.9-1 13.9-2.7 4.8-2 6.7-2.6 8.9-3.3.9-.3 4.2-1.1 4.9-.2.4.5-.2.9-1.3 1.4-.8.3-1.9.7-2.9 1.1-2.3.9-6.7 2.5-8.1 3.7 0 0 6.2-.9 12.2-.9s10.1 1.3 14.6 3c4.9 1.8 9.1 1.2 12.7-1.8 3.3-2.7 4.8-5.9 4.7-9.6.1-3.9-1.3-6.9-3.7-9.4zm-8.5 19.2c-5.6 0-10.2-4.6-10.2-10.2s4.6-10.2 10.2-10.2 10.2 4.6 10.2 10.2-4.6 10.2-10.2 10.2z"/><path d="m65.4 80.5h-21.7l-5.6 15.3h4.2l4.2-11.6h5.3c.6 0 .9.5.7 1.1l-3.9 10.6h4.2l3.9-10.6c.2-.6.9-1.1 1.4-1.1h4.2c.6 0 .9.5.7 1.1l-3.9 10.6h4.2l4.4-12.2c.9-1.8-.3-3.2-2.3-3.2z"/><path d="m94.9 91.1c-.2.6-.9 1.1-1.4 1.1h-5.3c-.6 0-.9-.5-.7-1.1l3.9-10.6h-4.2l-4.4 12.2c-.6 1.8.5 3.2 2.5 3.2h9.5c1.5 0 3-.9 3.4-2.1l4.8-13.2h-4.2z"/><path d="m24.5 91.1.4-1.1h12.7l1.3-3.7 1-2.6c.6-1.8-.5-3.2-2.5-3.2h-10.6c-1.5 0-3 .9-3.4 2.1l-3.7 10.1c-.6 1.8.5 3.2 2.5 3.2h13.2l1.3-3.7h-11.6c-.5-.1-.8-.5-.6-1.1zm2.1-5.8c.2-.6.9-1.1 1.4-1.1h6.4c.6 0 .9.5.7 1.1l-.4 1.1h-8.5z"/><path d="m135.8 80.5-2.2 5.8h-7.4l2.2-5.8h-4.3l-5.6 15.3h4.3l2.1-5.8h7.4l-2.1 5.8h4.2l5.6-15.3z"/><path d="m71 82.6-4.8 13.2h4.2l3.9-10.6c.2-.6.9-1.1 1.4-1.1h7.4l1.3-3.7h-10c-1.5.1-3 1-3.4 2.2z"/><path d="m4.8 82.6-1.5 4.2c-.7 1.8.5 3.2 2.5 3.2h6.9c.6 0 .9.5.7 1.1-.2.6-.9 1.1-1.4 1.1h-10.7l-1.3 3.6h13.2c1.5 0 3-.9 3.4-2.1l1.5-4.2c.6-1.8-.5-3.2-2.5-3.2h-6.8c-.6 0-.9-.5-.7-1.1.2-.6.9-1.1 1.4-1.1h10.6l1.3-3.7h-13.2c-1.4.1-3 1-3.4 2.2z"/><path d="m104.8 82.6-1.5 4.2c-.6 1.8.5 3.2 2.5 3.2h6.9c.6 0 .9.5.7 1.1-.2.6-.9 1.1-1.4 1.1h-10.6l-1.3 3.7h13.2c1.5 0 3-.9 3.4-2.1l1.5-4.2c.6-1.8-.5-3.2-2.5-3.2h-6.9c-.6 0-.9-.5-.7-1.1.2-.6.9-1.1 1.4-1.1h10.6l1.3-3.7h-13.2c-1.4 0-2.9.9-3.4 2.1z"/></g></svg>