<svg enable-background="new 0 0 140 140" viewBox="0 0 140 140" xmlns="http://www.w3.org/2000/svg" width="140" height="140"><path d="m30.1 57.5c0-.2-.2-.3-.3-.3s-2.9-.1-2.9-.1-2.3-2.2-2.5-2.5c-.2-.2-.7-.2-.8-.1 0 0-.4.1-1.2.4-.1-.4-.3-.9-.6-1.4-.8-1.6-2-2.4-3.5-2.4-.1 0-.2 0-.3 0-.1-.1-.1-.1-.1-.1-.6-.7-1.5-1-2.4-1-1.9.1-3.8 1.4-5.3 3.8-1.1 1.7-1.9 3.8-2.1 5.5-2.2.7-3.7 1.1-3.7 1.1-1.1.3-1.1.4-1.3 1.4-.2.9-3.1 23-3.1 23l24 4.2 10.4-2.6c-.1 0-4.3-28.7-4.3-28.9zm-9-2.2c-.6.2-1.2.4-1.8.6 0-1-.1-2.3-.6-3.4 1.4.2 2.1 1.8 2.4 2.8zm-3.2 1c-1.3.4-2.6.8-4 1.2.4-1.5 1.1-2.9 2-3.9.3-.4.8-.8 1.3-1 .7 1.1.8 2.6.7 3.7zm-2.5-5c.4 0 .8.1 1.1.3-.5.3-1 .6-1.5 1.1-1.2 1.3-2.1 3.3-2.5 5.2-1.1.4-2.3.7-3.3 1 .7-3 3.3-7.5 6.2-7.6z" fill="#94bf47"/><path d="m29.7 57.2c-.1 0-2.9-.1-2.9-.1s-2.3-2.2-2.5-2.5c-.1-.1-.2-.1-.3-.1v34.5l10.4-2.6s-4.2-28.6-4.3-28.8c-.1-.3-.2-.4-.4-.4z" fill="#5f8f3e"/><path d="m18.2 62.6-1.2 4.5s-1.3-.6-2.9-.5c-2.4.1-2.4 1.6-2.4 2 .1 2 5.4 2.5 5.7 7.2.2 3.7-2 6.3-5.2 6.5-3.8.2-5.9-2-5.9-2l.8-3.4s2.1 1.6 3.8 1.5c1.1-.1 1.5-1 1.5-1.6-.1-2.8-4.4-2.6-4.7-7-.2-3.6 2.2-7.3 7.4-7.6 2.1-.2 3.1.4 3.1.4z" fill="#fff"/><g fill="#010101"><path d="m48.4 72.2c-1.2-.6-1.8-1.2-1.8-2 0-1 .9-1.6 2.2-1.6 1.6 0 3 .6 3 .6l1.1-3.4s-1-.8-4-.8c-4.1 0-7 2.4-7 5.7 0 1.9 1.3 3.3 3.1 4.4 1.5.8 2 1.4 2 2.3s-.7 1.6-2.1 1.6c-2 0-3.9-1-3.9-1l-1.2 3.4s1.7 1.2 4.7 1.2c4.3 0 7.3-2.1 7.3-5.9 0-2-1.5-3.5-3.4-4.5z"/><path d="m65.4 65.1c-2.1 0-3.8 1-5 2.5h-.1l1.8-9.5h-4.7l-4.6 24.2h4.7l1.6-8.3c.6-3.1 2.2-5.1 3.8-5.1 1.1 0 1.5.7 1.5 1.8 0 .6-.1 1.5-.2 2.1l-1.8 9.5h4.7l1.8-9.8c.2-1 .3-2.3.3-3.1.1-2.7-1.3-4.3-3.8-4.3z"/><path d="m80 65.1c-5.7 0-9.5 5.2-9.5 10.9 0 3.7 2.3 6.6 6.5 6.6 5.6 0 9.4-5 9.4-10.9 0-3.4-2-6.6-6.4-6.6zm-2.3 13.9c-1.6 0-2.3-1.4-2.3-3.1 0-2.7 1.4-7.1 4-7.1 1.7 0 2.2 1.5 2.2 2.9 0 2.8-1.4 7.3-3.9 7.3z"/><path d="m98.6 65.1c-3.2 0-5 2.8-5 2.8h-.1l.3-2.5h-4.2c-.2 1.7-.6 4.3-1 6.3l-3.3 17.3h4.7l1.3-7h.1s1 .6 2.8.6c5.6 0 9.2-5.7 9.2-11.5.1-3.1-1.4-6-4.8-6zm-4.6 14c-1.2 0-2-.7-2-.7l.8-4.4c.6-3 2.1-4.9 3.8-4.9 1.5 0 1.9 1.3 1.9 2.6 0 3-1.8 7.4-4.5 7.4z"/><path d="m110.2 58.3c-1.5 0-2.7 1.2-2.7 2.7 0 1.4.9 2.4 2.2 2.4h.1c1.5 0 2.7-1 2.8-2.7 0-1.4-.9-2.4-2.4-2.4z"/><path d="m103.6 82.3h4.7l3.3-16.8h-4.8z"/><path d="m123.6 65.5h-3.3l.2-.8c.3-1.6 1.2-3.1 2.8-3.1.8 0 1.5.3 1.5.3l.9-3.7s-.8-.4-2.6-.4c-1.7 0-3.4.5-4.6 1.6-1.6 1.4-2.4 3.4-2.7 5.4l-.1.8h-2.2l-.7 3.6h2.2l-2.5 13.3h4.7l2.5-13.3h3.3z"/><path d="m135 65.5s-3 7.5-4.3 11.6h-.1c-.1-1.3-1.2-11.6-1.2-11.6h-5l2.9 15.4c.1.3 0 .6-.1.8-.6 1.1-1.5 2.1-2.6 2.9-.9.6-1.9 1.1-2.7 1.3l1.3 4c1-.2 3-1 4.6-2.6 2.2-2 4.2-5.2 6.2-9.4l5.8-12.5h-4.8z"/></g></svg>