<svg enable-background="new 0 0 140 140" viewBox="0 0 140 140" width="140" height="140" xmlns="http://www.w3.org/2000/svg"><g fill="#3e4348" transform="translate(0 -53)"><path clip-rule="evenodd" d="m5.8 106h23.3c3.2 0 5.8 2.6 5.9 5.8v23.3c0 3.2-2.6 5.8-5.9 5.8h-23.3c-3.2 0-5.8-2.6-5.8-5.8v-23.3c0-3.2 2.6-5.8 5.8-5.8zm21.1 28.6c1 0 1.8-.8 1.8-1.8v-18.6c0-1-.8-1.8-1.9-1.8h-18.6c-1 0-1.8.8-1.8 1.8v18.6c0 1 .8 1.8 1.8 1.8z" fill-rule="evenodd"/><path d="m13.8 128.3c-.6 0-1-.5-1-1.1v-7.4c0-.3 0-.6.2-.8s.5-.3.8-.3h7.4c.6 0 1.1.5 1.1 1.1v7.4c0 .6-.5 1.1-1 1.1z"/><path d="m52.8 121.9c-1-.2-2-.6-2.9-.9-1.3-.4-2.2-1.5-2.2-2.9 0-2.5 2.4-3.6 4.7-3.6 2.1 0 4.2.9 5.5 2.6l.1.1 1.9-1.5-.1-.1c-1.8-2.2-4.5-3.5-7.3-3.4-1.8-.1-3.6.5-5.1 1.5-1.4 1-2.3 2.7-2.2 4.5 0 4.3 4.1 5.4 7.4 6.2s5.4 1.5 5.4 4.1c0 2.5-2 4.1-5.1 4.1-2.5.1-4.8-1.1-6.2-3.2l-.1-.1-2 1.4.1.1c1.8 2.6 4.9 4.1 8 4 4.7 0 7.8-2.6 7.8-6.5 0-4.3-4.3-5.4-7.7-6.4z"/><path clip-rule="evenodd" d="m75.6 121v-2.3h2.2v22.3h-2.2v-8.7c-1.3 1.7-3.3 2.8-5.4 2.7-4.3 0-7.2-3.4-7.2-8.3s3-8.3 7.2-8.3c2.2-.1 4.2.9 5.4 2.6zm-10.3 5.6c0 4.6 2.6 6.2 5.1 6.2 3.2 0 5.3-2.4 5.3-6.2 0-3.7-2.1-6.1-5.3-6.1-3.7 0-5.1 3.2-5.1 6.1z" fill-rule="evenodd"/><path d="m92.7 118.7v8.8c.2 2.8-1.9 5.1-4.7 5.3-.1 0-.2 0-.3 0-2.4 0-3.6-1.4-3.6-4.4v-9.8h-2.3v10.2c0 3.8 2.1 6.1 5.6 6.1 2.1 0 4.1-.9 5.3-2.6v2.2h2.2v-15.9z"/><path clip-rule="evenodd" d="m99.1 120.4c1.8-1.3 3.9-2 6.1-2 3.6 0 5.7 1.8 5.7 4.7v11.5h-2.2v-1.8c-1.2 1.4-3 2.2-4.9 2.1-3.4 0-5.6-1.9-5.6-4.9 0-3.9 3.7-4.5 5.3-4.8l.8-.1c2.2-.3 4.4-.7 4.4-2.5 0-2.1-2.7-2.2-3.5-2.2-1.8 0-3.5.6-4.9 1.6l-.1.1-1.2-1.8zm1.5 9.6c0 2.6 2.4 2.8 3.4 2.8 2.2 0 4.7-1.2 4.6-4.6v-2.3c-1.2.6-2.6 1-4 1.2l-.7.1c-2.2.5-3.3 1-3.3 2.8z" fill-rule="evenodd"/><path d="m123.9 119c-.7-.4-1.5-.6-2.2-.6-1.8 0-3.5.9-4.5 2.3v-2h-2.2v15.9h2.2v-8.5c0-3.8 2.1-5.5 4.2-5.5.6 0 1.2.1 1.8.4l.2.1.7-2z"/><path clip-rule="evenodd" d="m124.5 126.7c0-4.9 3.1-8.4 7.5-8.4 4.2 0 7.2 3 7.2 7.4 0 .4 0 .8-.1 1.1v.1h-12.2c.1 3.5 2.2 5.8 5.4 5.8 1.8 0 3.4-.7 4.5-2.1l.1-.1 1.6 1.4-.1.1c-1.5 1.9-3.8 3-6.3 2.9-4.5.1-7.6-3.2-7.6-8.2zm7.4-6.2c-2.6-.1-4.9 2-5 4.6h9.9c0-2.6-2.1-4.6-4.7-4.6-.1 0-.1 0-.2 0z" fill-rule="evenodd"/></g></svg>