<svg enable-background="new 0 0 140 140" width="140" height="140" viewBox="0 0 140 140" xmlns="http://www.w3.org/2000/svg"><g fill="#e23d52"><path d="m38.2 58.1c-.1-.1-.1-.2-.1-.2s-.1-.1-.1-.1-.1-.1-.1-.1l-8.7-7.3c-.1 0-.1-.1-.2-.1 0 0-.1 0-.1-.1h-.1-.1-.1-.1-.1-9.2-9.2-.1-.1-.1-.1c-.1 0-.3.1-.4.2l-8.7 7.2c-.1.1-.2.2-.3.4 0 0 0 .1-.1.1-.1.1-.1.2-.1.4v15c0 .4.2.7.5 1l17.8 15c.5.4 1.2.4 1.6 0l17.9-15.1c.3-.2.5-.6.5-1v-14.8c0-.2-.1-.3-.1-.5zm-17.8-5.6h6.6v6.2l-6.6 5.3zm-9.2.1h6.6v11.5l-6.6-5.3zm-8.7 6.5 6.2-5.1v4.8l-6.2 5.2zm16.6 27.8-4-3.4c2.2-2.1 5.7-2.1 7.8.1zm16.6-14.1-10.8 9.2c-3-3.3-8.1-3.5-11.4-.4-.1.1-.2.2-.3.3l-10.7-9v-5.6l7.5-6.3 8.3 6.7c.5.4 1.1.4 1.6 0l8.3-6.7 7.5 6.3zm0-8.8-6.2-5.2v-4.8l6.2 5.2z"/><path d="m58.3 50.2c-.1-.1-.2-.1-.3-.1h-11c-.3 0-.5.2-.5.5v2.1c0 .1 0 .3.1.3.1.1.2.1.3.1h3.9v14.1c0 .1.1.2.1.3.1.1.2.2.3.2h2.3c.1 0 .2-.1.3-.2s.1-.2.1-.3v-14.1h3.9c.3 0 .5-.2.5-.5v-2.1c.1 0 0-.2 0-.3z"/><path d="m76.3 67.1-7.8-16.9c-.1-.2-.2-.3-.4-.3h-.2c-.2 0-.4.1-.4.3l-7.8 16.9c-.1.1-.1.3 0 .5.1.1.2.2.4.2h2.2c.3 0 .6-.2.7-.5l1.2-2.8h7.5l1.2 2.8c.1.3.4.5.7.5h2.2c.2 0 .3-.1.4-.2.1-.2.1-.4.1-.5zm-10.9-5.4 2.5-5.5h.1l2.5 5.5z"/><path d="m83.5 50.3c-.1-.1-.2-.1-.3-.1h-2.3c-.1 0-.3.1-.3.1-.1.1-.1.2-.1.3v16.7c0 .1.1.2.1.3.1.1.2.2.3.2h2.3c.3 0 .5-.2.5-.5v-16.7c-.1-.1-.1-.3-.2-.3z"/><path d="m100.1 64.9c-.1-.1-.2-.1-.3-.1h-6.4v-14.2c0-.1-.1-.2-.1-.3-.1-.1-.2-.2-.3-.1h-2.3c-.3 0-.5.2-.5.5v16.7c0 .1 0 .2.1.3s.2.1.3.1h9.2c.1 0 .3 0 .3-.1.1-.1.1-.2.1-.3v-2.1c0-.2 0-.4-.1-.4z"/><path d="m118.6 52.5c-3.5-3.5-9.3-3.5-12.8 0-1.7 1.7-2.7 4-2.6 6.4 0 5 4.1 9.1 9.1 9.1s9.1-4.1 9.1-9.1c-.1-2.4-1.1-4.7-2.8-6.4zm-2.3 10.5c-2.2 2.3-5.9 2.3-8.2 0-1.1-1.1-1.7-2.5-1.7-4.1 0-1.5.6-3 1.7-4.1 2.2-2.2 5.8-2.3 8.1-.1 0 0 .1.1.1.1 1.1 1.1 1.7 2.6 1.7 4.1 0 1.6-.6 3-1.7 4.1z"/><path d="m135.8 60.6c1.1-.4 2-1.1 2.7-2s1-2 1-3.1c0-1.4-.6-2.8-1.6-3.8s-2.4-1.6-3.9-1.6h-7.2c-.3 0-.5.2-.5.5v16.7c0 .1 0 .3.1.3.1.1.2.1.3.1h2.3c.1 0 .3-.1.3-.2.1-.1.1-.2.1-.3v-6.4h2.8l3.3 6.6c.1.1.2.2.4.2h2.6c.2 0 .3-.1.4-.2.1-.2.1-.3 0-.5zm-.3-3.2c-.5.5-1.1.8-1.7.8h-4.1v-5h4.1c.7 0 1.3.3 1.8.7s.7 1.1.7 1.7c0 .7-.3 1.3-.8 1.8z"/><path d="m56.7 81.5c1.1-.6 2.3-2 2.3-3.8 0-2.5-2-4.4-4.9-4.4h-5.1c-.2 0-.5.2-.5.5v15.7c0 .2.2.5.4.5h5.4c3.1 0 5.2-1.9 5.2-4.6.1-2.3-1.5-3.4-2.8-3.9zm-6.4-6.6h3.9c1.8 0 2.8 1.1 2.8 2.8s-1 3-2.8 3h-3.9zm4.3 13.4h-4.3v-5.9h3.9c1.9 0 3.4 1.2 3.4 2.9s-1.3 3-3 3z"/><path d="m71.6 83.2c2.1-.8 3.5-2.7 3.5-4.8 0-2.8-2.3-5.1-5.2-5.1h-6.1c-.2 0-.5.2-.5.5v15.7c0 .2.2.5.4.5h.9c.2 0 .4-.2.5-.5v-6h4.5l3.2 6.3c.1.1.2.2.4.2h1.2c.2 0 .5-.2.5-.4 0-.1 0-.2-.1-.3zm-6.4-1.4v-6.8h4.6c1.8 0 3.4 1.5 3.4 3.3 0 1.9-1.5 3.4-3.4 3.5z"/><path d="m92.2 89.3-7.2-16c-.1-.2-.2-.3-.4-.3h-.2c-.2 0-.3.1-.4.3l-7.2 16c-.1.2-.1.5.1.6.1 0 .2.1.3.1h.9c.2 0 .3-.1.4-.3l1.7-3.9h8.4l1.8 3.9c.1.2.2.3.4.3h.9c.2 0 .4-.1.5-.4 0-.2 0-.2 0-.3zm-11.3-5 3.5-7.8h.2c1.2 2.6 2.3 5.2 3.5 7.8z"/><path d="m107.8 73.3h-.8c-.2 0-.4.2-.4.5v12.6h-.1l-10.7-13.3h-.6c-.2 0-.4.2-.5.4v16c0 .2.2.4.5.5h.8c.2 0 .5-.2.5-.4v-13l10.9 13.6h.4c.2 0 .4-.2.5-.4v-16c-.1-.3-.3-.5-.5-.5z"/><path d="m118.8 73.3h-5.3c-.2 0-.4.2-.4.5v15.7c0 .2.2.4.4.5h5.3c4.6 0 8.3-3.7 8.3-8.3 0-4.7-3.7-8.4-8.3-8.4zm-.3 15h-3.6v-13.4h3.6c3.9 0 6.7 2.8 6.7 6.7s-2.9 6.7-6.7 6.7z"/><path d="m134.7 80.6c-2-.8-3.2-1.8-3.2-3.3 0-1 .8-2.6 3.3-2.6 1.4 0 2.9 1 3.1 1.1.4.2.6.1.8-.2.1-.1.2-.3.3-.5.3-.5 0-.7-.1-.8-1.2-.8-2.6-1.2-4.1-1.2-3.8 0-5 2.6-5 4.2 0 2.7 1.6 3.8 4.2 4.9 2.7 1.1 4.1 2.1 4.1 3.7 0 1.4-1.3 2.6-3.2 2.6-2.1 0-3.8-1.7-4-1.8-.3-.3-.6-.1-.8.2-.1.1-.2.3-.4.5-.3.5 0 .6.1.8 1.4 1.2 3.2 1.9 5 1.9 2.8 0 5.1-1.8 5.1-4.3.1-2.7-2-3.9-5.2-5.2z"/></g></svg>