<svg enable-background="new 0 0 140 140" width="140" height="140" viewBox="0 0 140 140" xmlns="http://www.w3.org/2000/svg"><path d="m45.2 66.2c0-2.5-2.4-5.2-6.7-5.2-4.7 0-10 3.5-10.8 10.4-.8 7 3.6 10.1 8 10.1s6.7-1.7 9.1-4c-2-2.5-4.6-1.4-5.1-1.1-.6.3-1.3.7-2.7.7-1.7 0-3.4-.8-3.4-3.9 10.8-1.1 11.6-4.5 11.6-7zm-5.4.4c-.1.8-.4 2.1-5.9 2.9 1.2-4.1 3.4-4.4 4.4-4.4 1-.1 1.6.6 1.5 1.5zm-18.4.7s-2.3 7.3-2.5 8c-.1-.6-1.8-13.8-1.8-13.8-4 0-6.1 2.8-7.2 5.8 0 0-2.8 7.4-3.1 8 0-.6-.4-7.9-.4-7.9-.2-3.7-3.6-5.9-6.3-5.9l3.3 20c4.2 0 6.4-2.8 7.6-5.8 0 0 2.5-6.5 2.6-6.8 0 .3 1.8 12.6 1.8 12.6 4.2 0 6.4-2.7 7.7-5.5l5.9-14.4c-4.3-.2-6.5 2.6-7.6 5.7zm39.2-6.3c-2.6 0-4.6 1.4-6.2 3.5l1.5-12c-3.4 0-6.2 3-6.8 7.4l-2.6 21.4c2 0 4.1-.6 5.2-2 1 1.3 2.5 2.3 4.7 2.3 5.8 0 9.8-6.7 9.8-13 0-5.8-2.8-7.6-5.6-7.6zm-.6 10.3c-.6 3.5-2.6 5.9-4.5 5.9s-2.7-.8-2.7-.8c.4-3.1.6-5 1.3-6.6s2.3-4.2 4.1-4.2c1.7-.1 2.5 2.1 1.8 5.7zm20.6-9.9h-4v-.2c.3-2.6.9-4 3-4.2 1.4-.1 2-.9 2.2-1.7.1-.6.5-2.8.5-2.8-8.1 0-10.7 3.5-11.3 8.8v.1h-.1c-1.3 0-2.8 1.5-3 3.4l-.1.7h2.7l-2.3 18.7-.7 3.4h.3c3.8-.1 6.2-3.1 6.8-7.5l1.8-14.6h1.3c1.2 0 2.7-1.2 3-3.3zm21-.3c-4.7 0-9.1 3.4-10.4 8.8s.7 11.8 7.6 11.8c6.8 0 10.8-6.6 10.8-12.2 0-5.5-3.8-8.4-8-8.4zm1.9 10c-.2 2.4-1.3 6.1-4.3 6.1s-2.5-4.3-2.3-6.4c.3-2.2 1.5-5.3 4.2-5.3 2.5 0 2.7 2.8 2.4 5.6zm29.1-3.8s-2.3 7.3-2.5 8c-.1-.6-1.8-13.8-1.8-13.8-4 0-6.1 2.8-7.2 5.8 0 0-2.8 7.4-3.1 8 0-.6-.4-7.9-.4-7.9-.2-3.7-3.6-5.9-6.3-5.9l3.3 20c4.2 0 6.4-2.8 7.6-5.8 0 0 2.5-6.5 2.6-6.8 0 .3 1.8 12.6 1.8 12.6 4.2 0 6.4-2.7 7.7-5.5l5.9-14.4c-4.3-.2-6.5 2.6-7.6 5.7zm-48.1-14.8-3.4 27.4-.7 3.4h.3c3.7-.1 6.3-3.3 6.7-7.3l2-15.7c.5-4.8-2.3-7.8-4.9-7.8z" fill="#4353ff"/></svg>