<svg width="140" height="140" fill="none" xmlns="http://www.w3.org/2000/svg"><path fill="#fff" d="M0 0h140v140H0z"/><path d="M112.945 18.904c-10.259 0-18.808 6.845-21.43 17.088C86.786 20.6 74.687 18.916 69.64 18.916c-5.046 0-17.14 1.684-21.876 17.073-2.623-10.234-11.174-17.073-21.43-17.073-12.585 0-22.443 9.029-22.443 20.554 0 5.097 1.255 9.166 2.771 13.58l17.088 48.494c5.721 16.083 17.378 18.484 23.816 18.484 10.099 0 17.969-5.19 22.073-14.39 4.107 9.241 11.978 14.458 22.072 14.458 6.43 0 18.075-2.406 23.826-18.548l17.181-48.659.134-.402c.197-.623.395-1.208.582-1.764.915-2.717 1.951-5.796 1.951-9.569 0-12.892-9.438-22.25-22.441-22.25zm8.1 29.833l-17.182 48.66c-2.098 5.886-5.587 10.269-12.15 10.269-6.15 0-9.782-3.44-11.596-9.332l-10.34-32.385h-.28L59.164 98.334c-1.818 5.894-5.45 9.264-11.598 9.264-6.565 0-10.057-4.346-12.151-10.234L18.373 49c-1.397-4.067-2.095-6.584-2.095-9.531 0-4.487 4.193-8.123 10.057-8.123 4.89 0 8.382 3.235 9.5 8.001l11.594 38.577h.277l11.735-37.727c1.539-5.466 4.331-8.85 10.2-8.85 5.866 0 8.659 3.378 10.195 8.845l11.735 37.732h.277l11.598-38.577c1.117-4.766 4.608-8.013 9.499-8.013 5.864 0 10.055 3.65 10.055 9.82 0 2.242-.981 4.494-1.955 7.583z" fill="#3192E7"/></svg>