<svg width="140" height="140" fill="none" xmlns="http://www.w3.org/2000/svg"><path fill="#fff" d="M0 0h140v140H0z"/><path d="M106.122 14.466c-1.417 0-2.83-.003-4.245-.003-3.356-.008-6.454 2.555-8.822 4.587-2.307 1.979-4.283 4.377-6.169 6.758-.677-1.853-1.566-3.673-2.489-5.335-1.21-2.37-3.583-4.656-6.239-5.209-1.345-.282-2.852-.144-4.218-.144-1.184-.004-4.547 0-4.547 0s-3.368-.004-4.55 0c-1.368 0-2.871-.138-4.218.144-2.657.553-5.03 2.838-6.237 5.209-.924 1.662-1.815 3.482-2.49 5.335-1.886-2.381-3.863-4.78-6.17-6.758-2.37-2.032-5.464-4.595-8.823-4.587-1.415 0-2.83.004-4.245.004l-6.064.009c-1.471.006-4.732-.38-3.96 2.012.187.579.846 1.099 1.219 1.58.426.552.851 1.109 1.22 1.7.59.945 1.16 1.9 1.71 2.868 1.325 2.335 2.442 4.798 3.758 7.145 2.897 5.177 5.994 10.235 9.738 14.855 2.764 3.407 6.103 6.847 10.234 8.538-3.119 5.786-6.225 11.58-9.333 17.37-2.693 5.008-5.384 9.99-8.222 14.918-.136.24-.278.476-.406.717-.373.702-.906 1.682-.902 2.489.003 1.6 2.381 1.647 3.52 1.655 1.228.007 2.459-.026 3.687-.039 2.135-.024 4.27-.052 6.404-.073 1.263-.014 2.548.035 3.806-.085 3.201-.308 6.13-1.906 8.018-4.523.612-.851 6.353-10.25 8.676-14.046.877-1.437 3.63-5.734 3.63-5.734s2.748 4.297 3.628 5.734c2.321 3.797 8.063 13.195 8.675 14.046 1.89 2.617 4.816 4.215 8.018 4.523 1.26.12 2.542.07 3.805.085 2.133.021 4.269.05 6.405.073 1.229.012 2.459.046 3.688.039 1.136-.008 3.518-.055 3.52-1.655.004-.807-.527-1.787-.905-2.489-.129-.241-.269-.477-.405-.717-2.835-4.928-5.527-9.91-8.218-14.918-3.112-5.79-6.218-11.584-9.34-17.37 4.133-1.691 7.472-5.13 10.237-8.538 3.746-4.62 6.841-9.678 9.739-14.855 1.314-2.347 2.431-4.81 3.759-7.145.55-.968 1.12-1.924 1.71-2.867.367-.593.794-1.149 1.218-1.7.377-.482 1.032-1.002 1.221-1.581.769-2.392-2.487-2.005-3.958-2.012l-6.068-.01z" fill="#F9C638"/><path d="M76.407 27.788c.216-.03.431-.067.645-.11a6.15 6.15 0 0 0 .877-.253 5.12 5.12 0 0 0 1.6-.907c.263-.2.46-.428.529-.567-1.874.034-3.27.024-4.192-.048-.25-.038-.434.61-.554 1.92-.013.1.59.034 1.095-.035zm-5.15 9.148h-.003.003zm-4.008 0h-.005.005zm-.304-.427a.147.147 0 0 0-.036.097.144.144 0 0 0 .053.106c.089.078.18.158.287.224.545.377 1.216.577 2 .588.799-.011 1.431-.198 2.007-.589.1-.063.202-.134.3-.223.07-.059.103-.15.052-.21-.052-.058-.144-.074-.24-.006a3.183 3.183 0 0 1-.268.202h-.002c-.53.357-1.114.527-1.849.539-.72-.012-1.343-.194-1.841-.538l-.005-.001c-.089-.06-.171-.132-.252-.201a.144.144 0 0 0-.16-.022.145.145 0 0 0-.046.034zm8.212-1.248c-.007-.01-.014-.04-.018-.047 0 0 .011.031.022.048h-.004zm4.414-5.23c-.219-.432-.459-.746-.716-.935-.83-.613-2.094-.617-2.845.12-.35.343-.606.761-.801 1.21-.436 1.016-.761 2.168-.69 3.287.037.505.212 1.03.569 1.4.426.453 1.041.63 1.635.751.589.121 1.276.213 1.826-.078.635-.343.902-1.123 1.078-1.763.223-.825.43-1.706.346-2.568a4.227 4.227 0 0 0-.402-1.423z" fill="#2A2D2C"/><path d="M77.493 32.12c.47-.158.777-.246.913-.257-.668.05-1.012-.22-1.074-.8l-.124-1.21c-.037.777-.123 1.273-.296 1.53-.113.159-.207.27-.32.32l-.396.124c-.159.046-.322.1-.454.1.727-.064 1.12.121 1.18.523.103.584.163.965.211 1.15.013-.902.137-1.39.36-1.48zm.889 1.797l-.074-.749c-.026.48-.074.787-.174.948a.633.633 0 0 1-.211.201l-.233.07c-.1.026-.197.063-.284.063.442-.038.69.072.74.32.049.358.1.603.124.702 0-.556.075-.848.222-.9.285-.097.469-.16.555-.16-.408.027-.628-.147-.666-.495" fill="#fff"/><path d="M63.17 27.823c-.128-1.31-.31-1.958-.558-1.92-.925.072-2.318.082-4.194.048.067.14.27.367.528.567.347.275.821.636 1.6.907.286.105.579.19.876.253.062.015.336.063.648.11.502.069 1.106.135 1.1.035zm.148 7.439l.02-.048a.367.367 0 0 1-.017.047l-.003.001zm-4.814-3.807c-.086.862.12 1.744.347 2.568.173.64.44 1.42 1.075 1.763.553.291 1.241.199 1.826.078.592-.12 1.21-.298 1.637-.751.356-.37.532-.894.568-1.4.072-1.12-.253-2.27-.691-3.287a3.694 3.694 0 0 0-.801-1.21c-.748-.738-2.009-.733-2.843-.12-.259.19-.497.503-.712.936-.22.446-.358.928-.407 1.423z" fill="#2A2D2C"/><path d="M60.983 32.12c-.47-.158-.777-.246-.912-.257.666.05 1.013-.22 1.073-.8l.123-1.21c.037.777.123 1.273.299 1.53.11.159.208.27.317.32l.396.124c.161.046.32.1.456.1-.726-.064-1.12.121-1.181.523-.102.584-.164.965-.212 1.15-.012-.902-.136-1.39-.36-1.48zm-.889 1.797l.076-.749c.024.48.075.787.173.948a.65.65 0 0 0 .208.201l.235.07c.1.025.197.063.284.063-.445-.038-.692.072-.74.32-.05.358-.1.603-.124.702 0-.556-.075-.848-.222-.9-.284-.097-.47-.16-.556-.16.408.027.63-.147.666-.495zM32.833 86.323c-.187.354-.408.766-.578 1.18-.173.409-.29.826-.29 1.16v.005a.93.93 0 0 0 .297.706c.187.178.474.319.811.417.68.194 1.536.215 2.1.217.125.003.252.003.377.003 1.096 0 2.2-.03 3.305-.04l6.404-.074.667-.002.787.002c.785 0 1.565-.012 2.326-.085 3.118-.298 5.956-1.852 7.794-4.396.14-.187.617-.945 1.275-2.001.66-1.057 1.51-2.43 2.41-3.896 1.801-2.928 3.817-6.23 4.978-8.126.883-1.445 3.629-5.735 3.63-5.738a.323.323 0 0 1 .267-.146c.107 0 .207.058.262.146.001 0 2.753 4.293 3.635 5.738 1.74 2.845 5.405 8.846 7.386 12.022.658 1.055 1.136 1.814 1.276 2.001 1.833 2.544 4.673 4.098 7.792 4.396.76.073 1.542.085 2.324.085l.79-.002.666.002c2.132.024 4.268.05 6.405.073 1.105.01 2.207.041 3.304.041.124 0 .252 0 .377-.003.421-.002 1.008-.01 1.564-.101.557-.085 1.068-.265 1.346-.533a.928.928 0 0 0 .297-.706v-.01c0-.333-.117-.749-.286-1.16-.171-.41-.393-.822-.581-1.17-.126-.236-.262-.47-.399-.706-2.838-4.933-5.534-9.92-8.223-14.929-3.114-5.788-6.217-11.587-9.338-17.371a.307.307 0 0 1-.018-.255.304.304 0 0 1 .175-.185c4.048-1.652 7.359-5.053 10.11-8.442 3.732-4.601 6.816-9.642 9.71-14.813.996-1.78 1.885-3.636 2.844-5.462-1.834 2.91-4.518 5.774-8.007 8.589-4.588 3.69-12.383 7.333-23.307 10.891-10.537 3.437-18.28 7.424-23.258 12.008-2.358 2.145-4.02 3.632-4.98 4.421-.22.225-1.27 1.32-3.104 3.349-2.226 2.498-4.585 5.486-7.049 8.965a1179.2 1179.2 0 0 0-2.41 3.418 449.15 449.15 0 0 1-5.464 9.816c-.136.237-.273.47-.4.701" fill="#fff"/><path d="M115.616 16.317c-.047.154-.205.387-.424.628-.217.244-.478.495-.703.781l-.004.004c-.425.553-.864 1.122-1.25 1.747l.003-.004c-.596.95-1.17 1.913-1.722 2.889-1.346 2.365-2.464 4.829-3.762 7.147-2.891 5.166-5.97 10.195-9.687 14.777-2.741 3.383-6.028 6.748-10.013 8.373a.56.56 0 0 0-.28.778c3.12 5.785 6.226 11.58 9.34 17.371 2.69 5.008 5.386 9.995 8.225 14.931l-.001-.004c.138.246.274.479.399.706.187.35.405.754.569 1.15.165.394.271.785.269 1.066v.01c-.008.26-.077.385-.219.53-.213.213-.688.39-1.221.471-.532.085-1.107.096-1.526.1h-.417c-1.08 0-2.167-.029-3.262-.039-2.136-.026-4.27-.054-6.405-.074a30.247 30.247 0 0 0-.58-.005l-.903.002c-.772 0-1.535-.01-2.275-.08-3.05-.294-5.825-1.813-7.618-4.294-.06-.083-.219-.324-.436-.666-1.535-2.41-6.184-10.025-8.217-13.345-.885-1.45-3.633-5.74-3.633-5.743a.556.556 0 0 0-.94 0c-.003.003-2.75 4.293-3.637 5.743a3941.723 3941.723 0 0 1-4.977 8.126c-.9 1.465-1.75 2.837-2.408 3.894-.275.443-.552.885-.831 1.325-.216.342-.376.584-.436.667-1.79 2.48-4.567 3.999-7.618 4.292-.74.07-1.5.081-2.276.081l-.903-.002c-.193 0-.386.002-.58.005-2.136.02-4.27.048-6.404.074-1.094.01-2.183.038-3.263.038h-.416c-.559-.003-1.399-.025-2.032-.21-.317-.088-.57-.22-.713-.36-.142-.145-.21-.267-.217-.531v-.01c-.002-.28.101-.671.268-1.065.165-.397.38-.8.566-1.15.12-.225.26-.459.4-.706l-.002.004c2.841-4.936 5.537-9.923 8.23-14.933 3.11-5.79 6.214-11.584 9.332-17.37a.56.56 0 0 0-.279-.778c-3.984-1.624-7.27-4.99-10.013-8.373-3.712-4.582-6.795-9.61-9.683-14.775-1.301-2.32-2.418-4.783-3.762-7.148a76.82 76.82 0 0 0-1.723-2.887l.002.001c-.387-.623-.823-1.194-1.25-1.747-.225-.289-.488-.542-.707-.786-.217-.24-.379-.472-.423-.626a1.598 1.598 0 0 1-.091-.486c.003-.192.047-.277.117-.367.106-.13.377-.271.77-.348.392-.08.876-.104 1.35-.104.444 0 .875.019 1.24.019h.045l6.062-.01 4.244-.002h.016c1.531-.001 3.048.589 4.486 1.452 1.437.862 2.78 1.989 3.957 3 2.259 1.937 4.215 4.306 6.096 6.683a.556.556 0 0 0 .96-.155c.662-1.816 1.54-3.612 2.454-5.257l.01-.017c1.137-2.248 3.435-4.426 5.855-4.916.623-.13 1.308-.166 2.015-.166.69 0 1.396.033 2.089.033l1.705-.001 2.844.001 2.843-.001 1.703.001c.695 0 1.402-.034 2.092-.034.706 0 1.393.037 2.013.167 2.42.49 4.72 2.668 5.858 4.916l.009.017c.914 1.645 1.79 3.44 2.453 5.257a.556.556 0 0 0 .727.329.555.555 0 0 0 .235-.174c1.88-2.377 3.836-4.747 6.092-6.682 1.18-1.012 2.523-2.139 3.96-3 1.437-.864 2.955-1.454 4.485-1.453h.015c1.414 0 2.828.003 4.245.003l6.067.009h.043c.364 0 .796-.019 1.239-.019.632-.002 1.287.046 1.699.2.207.073.345.165.418.252.072.09.114.175.118.367 0 .12-.024.283-.09.486zm.819-1.576c-.373-.426-.882-.609-1.394-.715-.516-.105-1.06-.126-1.57-.126-.474 0-.914.02-1.239.02h-.042l-6.068-.01c-1.416 0-2.829-.003-4.245-.003h.003l-.018-.001c-1.82.001-3.523.69-5.06 1.613-1.538.924-2.923 2.091-4.11 3.107-2.109 1.813-3.924 3.946-5.639 6.086a40.142 40.142 0 0 0-2.17-4.51c-1.282-2.486-3.725-4.869-6.613-5.483-.739-.155-1.497-.189-2.24-.189-.724 0-1.434.032-2.09.032h-9.1c-.654 0-1.363-.032-2.086-.032-.744 0-1.5.034-2.244.19-2.893.615-5.34 3.006-6.62 5.5h.001a40.122 40.122 0 0 0-2.162 4.492c-1.714-2.14-3.529-4.275-5.637-6.085-1.186-1.017-2.572-2.184-4.109-3.108-1.538-.923-3.24-1.612-5.062-1.613h-.03c-1.41 0-2.822.004-4.23.004l-6.066.01h-.04c-.327 0-.769-.02-1.24-.02-.68.002-1.422.033-2.077.263-.328.117-.643.293-.89.578-.246.28-.39.673-.386 1.09 0 .262.05.536.142.826.143.425.406.744.655 1.029.253.28.506.528.656.724.424.547.836 1.09 1.185 1.653l.001.001a73.86 73.86 0 0 1 1.698 2.846c1.311 2.306 2.427 4.768 3.758 7.143 2.903 5.189 6.016 10.275 9.79 14.932 2.665 3.28 5.885 6.617 9.9 8.44-3.026 5.617-6.04 11.239-9.057 16.857-2.69 5.007-5.38 9.985-8.213 14.903l-.001.002c-.133.232-.277.473-.414.733-.184.347-.42.78-.613 1.246-.19.467-.351.966-.353 1.49v.024h.001c-.002.535.226 1.01.561 1.322.51.476 1.178.657 1.813.766.637.1 1.264.108 1.697.11l.422.002c1.1 0 2.192-.028 3.274-.039 2.138-.024 4.273-.053 6.404-.073l.569-.003h.903c.783 0 1.583-.008 2.382-.086 3.353-.321 6.43-2 8.416-4.752.097-.13.25-.37.474-.719 1.548-2.432 6.193-10.038 8.227-13.361.434-.712 1.343-2.145 2.14-3.398l1.014-1.591c.27.42.626.983 1.014 1.591a324.517 324.517 0 0 1 2.14 3.398c1.655 2.712 3.315 5.422 4.978 8.129.901 1.465 1.75 2.839 2.412 3.9.33.531.614.984.835 1.332.223.35.377.587.471.719 1.99 2.753 5.065 4.43 8.416 4.752.802.078 1.601.087 2.383.087l.904-.001c.191 0 .379 0 .567.003 2.132.02 4.268.05 6.405.073 1.083.01 2.175.039 3.274.039l.423-.002c.579-.006 1.494-.012 2.336-.252.421-.122.837-.303 1.174-.623.34-.314.571-.795.563-1.335v-.012c-.001-.524-.16-1.023-.352-1.491-.195-.467-.43-.9-.618-1.249-.136-.254-.278-.494-.411-.73h-.001c-2.831-4.92-5.521-9.897-8.21-14.904-3.02-5.618-6.035-11.24-9.06-16.857 4.013-1.823 7.233-5.16 9.898-8.439 3.777-4.658 6.887-9.744 9.793-14.933 1.33-2.375 2.445-4.837 3.758-7.143a74.79 74.79 0 0 1 1.696-2.844l.003-.005c.348-.56.762-1.104 1.185-1.654l-.003.003c.153-.196.406-.445.658-.725.25-.284.512-.603.654-1.026.093-.292.142-.565.142-.828a1.625 1.625 0 0 0-.385-1.09z" fill="#2A2D2C"/><path d="M74.937 95.946c-1.516.794-2.082 2.133-2.082 5.834 0 0 .768-.741 1.908-1.153a8.16 8.16 0 0 0 1.95-1.057c1.281-.938 1.479-2.145 1.479-4.177 0 0-2.09-.056-3.255.553z" fill="#F9C638"/><path d="M65.942 96.814c-1.237 1.088-1.6 2.823-1.6 2.823l-4.094 15.838-3.407-12.962c-.331-1.378-.93-3.082-1.875-4.234-1.206-1.468-3.656-1.56-3.916-1.56-.262 0-2.712.092-3.917 1.56-.946 1.152-1.544 2.856-1.876 4.234l-3.405 12.962-4.096-15.838s-.361-1.735-1.598-2.823c-2.006-1.766-5.014-1.388-5.014-1.388l7.842 29.599s2.587.186 3.882-.473c1.7-.865 2.51-1.532 3.54-5.559.917-3.591 3.482-14.137 3.72-14.888.119-.371.27-1.258.922-1.258.667 0 .804.886.921 1.258.235.752 2.804 11.297 3.721 14.888 1.029 4.026 1.839 4.694 3.539 5.559 1.294.659 3.881.473 3.881.473l7.843-29.599s-3.008-.378-5.013 1.388zm12.248 3.445s-.491.757-1.61 1.381c-.719.401-1.408.673-2.149 1.027-1.24.595-1.576 1.256-1.576 2.266v20.092s1.979.25 3.273-.409c1.667-.848 2.05-1.665 2.064-5.346v-17.94h-.002v-1.071zm19.548 10.038l9.95-14.773s-4.199-.714-6.279 1.176c-1.33 1.21-2.818 3.383-2.818 3.383l-3.661 5.269c-.178.273-.41.572-.781.572-.371 0-.604-.299-.781-.572l-3.662-5.269s-1.488-2.174-2.819-3.383c-2.08-1.89-6.279-1.176-6.279-1.176l9.95 14.773-9.923 14.728s4.373.551 6.452-1.339c1.331-1.208 2.62-3.174 2.62-3.174l3.66-5.268c.178-.275.41-.573.782-.573.37 0 .603.298.78.573l3.662 5.268s1.363 1.966 2.694 3.174c2.08 1.89 6.377 1.339 6.377 1.339l-9.923-14.728" fill="#2A2D2C"/></svg>