<svg width="140" height="140" fill="none" xmlns="http://www.w3.org/2000/svg"><path fill="#fff" d="M0 0h140v140H0z"/><path fill-rule="evenodd" clip-rule="evenodd" d="M70.001 21.848c12.562 0 23.999 4.813 32.572 12.694-4.202-.112-8.395 2.386-8.569 8.105-.353 11.564 13.827 14.027 6.186 37.286l-6.32 19.24-17.214-50.708c-.267-.785.043-1.232 1.008-1.232h4.867c.253 0 .46-.216.46-.48V43.87c0-.264-.208-.49-.46-.48-9.216.403-18.378.406-27.485 0-.254-.01-.46.217-.46.481v2.883c0 .264.207.48.46.48h4.893c1.089 0 1.394.363 1.65 1.065l7.073 19.343-10.64 32.127-17.489-51.514c-.217-.646.045-1.02.668-1.02h5.575c.253 0 .46-.217.46-.481V43.87c0-.264-.207-.494-.46-.48-5.85.31-11.722.373-17.192.43C38.168 30.596 53.062 21.846 70 21.846zm42.351 25.223A47.921 47.921 0 0 1 118.153 70c0 18.214-10.12 34.068-25.041 42.251l15.017-42.535c2.327-6.583 4.487-15.48 4.222-22.644h.001zm-26.23 68.31a48.01 48.01 0 0 1-16.12 2.771c-4.873 0-9.573-.727-14.005-2.071L70.83 73.57l15.291 41.813v-.002zm-36.726-1.852C33.112 105.806 21.85 89.216 21.85 70.001c0-7.123 1.55-13.885 4.326-19.97l23.223 63.499-.002-.001zM70 17.329c29.083 0 52.67 23.587 52.67 52.67 0 29.083-23.587 52.669-52.67 52.669-29.083 0-52.67-23.586-52.67-52.67C17.33 40.917 40.918 17.33 70 17.33zM70 14c30.922 0 56 25.078 56 56s-25.078 56-56 56-56-25.078-56-56 25.078-56 56-56z" fill="#464342"/></svg>