<?xml version="1.0" standalone="no"?>
<!DOCTYPE svg PUBLIC "-//W3C//DTD SVG 20010904//EN"
 "http://www.w3.org/TR/2001/REC-SVG-20010904/DTD/svg10.dtd">
<svg version="1.0" xmlns="http://www.w3.org/2000/svg"
 width="700.000000pt" height="700.000000pt" viewBox="0 0 700.000000 700.000000"
 preserveAspectRatio="xMidYMid meet">
  <metadata>
    Created by potrace 1.11, written by Peter Selinger 2001-2013
  </metadata>
  <g transform="translate(0.000000,700.000000) scale(0.100000,-0.100000)" fill="#000000" stroke="none">
    <path d="M2985 6980 c-34 -22 -50 -51 -135 -245 -34 -77 -72 -162 -85 -190
    -12 -27 -102 -230 -200 -450 -97 -220 -187 -422 -200 -450 -13 -27 -114 -255
    -225 -505 -111 -250 -212 -477 -225 -505 -13 -27 -38 -84 -55 -125 -18 -41
    -45 -102 -60 -135 -177 -383 -550 -1241 -550 -1266 0 -18 9 -46 20 -64 40 -65
    21 -63 700 -63 338 -1 626 -1 639 -1 21 -1 23 -4 16 -38 -4 -21 -9 -49 -11
    -63 -3 -14 -7 -33 -10 -42 -3 -9 -7 -25 -9 -35 -31 -151 -78 -366 -85 -393 -5
    -19 -12 -49 -15 -67 -3 -17 -17 -85 -31 -150 -14 -65 -27 -125 -29 -134 -2 -9
    -13 -61 -25 -115 -12 -55 -35 -162 -51 -239 -17 -77 -32 -147 -34 -155 -3 -12
    -29 -133 -51 -235 -2 -11 -24 -114 -49 -230 -25 -116 -48 -223 -51 -240 -3
    -16 -14 -67 -25 -112 -10 -44 -21 -95 -24 -113 -3 -18 -14 -69 -25 -115 -11
    -46 -22 -96 -25 -112 -3 -15 -16 -76 -29 -134 -34 -157 -24 -209 49 -243 46
    -22 85 -20 122 7 18 12 118 132 223 267 105 135 199 256 210 269 11 14 45 58
    77 99 83 107 262 334 276 352 7 8 66 84 132 169 66 84 140 179 165 211 25 32
    59 75 75 96 99 128 478 612 488 624 7 9 94 119 192 245 99 127 213 273 255
    326 41 53 85 109 97 125 12 16 31 40 42 54 11 14 115 147 231 295 116 149 216
    277 223 285 7 8 134 170 282 360 279 358 387 495 407 519 20 24 37 85 31 111
    -8 38 -49 87 -80 97 -17 6 -297 10 -701 10 -370 0 -675 2 -678 5 -3 3 29 76
    71 163 41 87 75 159 75 161 0 1 34 73 75 159 41 86 75 158 75 160 0 2 38 83
    165 350 35 74 98 208 145 311 16 34 48 101 71 150 23 49 64 136 92 194 53 114
    114 243 154 330 14 30 52 111 85 179 69 146 77 182 50 231 -40 75 38 70 -1147
    70 -1031 0 -1061 -1 -1090 -20z"/>
  </g>
</svg>
